<?xml version="1.0" encoding="utf-8"?>
<!-- Generated by IcoMoon.io -->
<svg version="1.1" xmlns="http://www.w3.org/2000/svg" xmlns:xlink="http://www.w3.org/1999/xlink" width="752" height="32" viewBox="0 0 752 32">
<svg id="icon-board" viewBox="0 0 37 32">
<path fill="#1ab798" style="fill: var(--color1, #1ab798)" d="M7.134 6.108h10.102v9.867h-10.102v-9.867z"></path>
<path fill="#1ab798" style="fill: var(--color1, #1ab798)" d="M7.134 17.236h9.892v8.73h-9.892v-8.73z"></path>
<path fill="#1ab798" style="fill: var(--color1, #1ab798)" d="M18.473 13.601h7.345v12.365h-7.345v-12.365z"></path>
<path fill="#1ab798" style="fill: var(--color1, #1ab798)" d="M18.473 6.108h7.345v6.257h-7.345v-6.257z"></path>
<path fill="#1ab798" style="fill: var(--color1, #1ab798)" d="M33.15 6.108h3.87v5.020h-3.87v-5.020z"></path>
<path fill="#1ab798" style="fill: var(--color1, #1ab798)" d="M33.15 13.527h3.87v5.020h-3.87v-5.020z"></path>
<path fill="#1ab798" style="fill: var(--color1, #1ab798)" d="M33.15 20.946h3.87v5.020h-3.87v-5.020z"></path>
<path fill="#1ab798" style="fill: var(--color1, #1ab798)" d="M29.601 3.709v24.581h-25.892v-24.581h25.892zM33.311 0h-33.311v32h33.311v-32z"></path>
</svg>


<svg id="icon-bell" viewBox="0 0 32 32">
<path d="M29.238 26.991l-2.289-3.816c-1.057-1.761-1.616-3.779-1.616-5.832v-3.343c0-4.22-2.816-7.789-6.667-8.94v-2.393c0-1.471-1.196-2.667-2.667-2.667s-2.667 1.196-2.667 2.667v2.393c-3.851 1.151-6.667 4.72-6.667 8.94v3.343c0 2.053-0.559 4.069-1.615 5.831l-2.289 3.816c-0.124 0.207-0.127 0.463-0.008 0.672s0.339 0.339 0.579 0.339h25.333c0.24 0 0.461-0.129 0.58-0.337s0.115-0.467-0.008-0.672z"></path>
<path fill="#1ab798" d="M11.801 29.333c0.752 1.571 2.344 2.667 4.199 2.667s3.447-1.096 4.199-2.667h-8.398z"></path>
</svg>
<svg id="icon-hub" viewBox="0 0 32 32">
<path d="M24.889 23.111l-7.111-7.111v-5.653c2.062-0.747 3.556-2.702 3.556-5.013 0-2.951-2.382-5.333-5.333-5.333s-5.333 2.382-5.333 5.333c0 2.311 1.493 4.267 3.556 5.013v5.653l-7.111 7.111h-7.111v8.889h8.889v-5.422l7.111-7.467 7.111 7.467v5.422h8.889v-8.889h-7.111z"></path>
</svg>
<svg id="icon-share" viewBox="0 0 32 32">
<path d="M26.030 20.338c-1.853 0-3.487 0.883-4.554 2.234l-9.903-5.064c0.13-0.483 0.223-0.983 0.223-1.509 0-0.572-0.111-1.111-0.265-1.636l9.859-5.041c1.062 1.413 2.738 2.336 4.642 2.336 3.225 0 5.833-2.608 5.833-5.83 0-3.219-2.608-5.829-5.833-5.829-3.217 0-5.829 2.61-5.829 5.829 0 0.527 0.093 1.028 0.224 1.513l-9.901 5.064c-1.069-1.353-2.706-2.239-4.562-2.239-3.222 0-5.829 2.611-5.829 5.832s2.607 5.83 5.829 5.83c1.907 0 3.581-0.926 4.648-2.341l9.855 5.041c-0.154 0.523-0.267 1.066-0.267 1.64 0 3.22 2.611 5.83 5.829 5.83 3.225 0 5.833-2.61 5.833-5.83 0.002-3.223-2.607-5.832-5.832-5.832z"></path>
</svg>
<svg id="icon-star" viewBox="0 0 32 32">
<path d="M31.972 12.36c-0.068-0.207-0.247-0.359-0.463-0.39l-10.362-1.506-4.634-9.389c-0.096-0.196-0.296-0.32-0.513-0.32s-0.418 0.124-0.513 0.32l-4.634 9.39-10.362 1.506c-0.216 0.031-0.395 0.182-0.463 0.39-0.067 0.207-0.011 0.435 0.145 0.587l7.498 7.309-1.771 10.32c-0.037 0.215 0.052 0.432 0.227 0.56 0.177 0.129 0.411 0.146 0.603 0.044l9.269-4.872 9.268 4.872c0.084 0.044 0.176 0.066 0.267 0.066 0.119 0 0.237-0.037 0.337-0.109 0.176-0.128 0.265-0.345 0.227-0.56l-1.77-10.32 7.498-7.309c0.156-0.153 0.212-0.38 0.144-0.587z"></path>
</svg>
<svg id="icon-thumb" viewBox="0 0 32 32">
<path d="M0 30.545h5.818v-17.455h-5.818v17.455zM32 14.545c0-1.6-1.309-2.909-2.909-2.909h-9.164l1.455-6.691v-0.436c0-0.582-0.291-1.164-0.582-1.6l-1.6-1.455-9.6 9.6c-0.582 0.436-0.873 1.164-0.873 2.036v14.545c0 1.6 1.309 2.909 2.909 2.909h13.091c1.164 0 2.182-0.727 2.618-1.745l4.364-10.327c0.145-0.291 0.145-0.727 0.145-1.018v-2.909l0.145 0z"></path>
</svg>
</svg>
