<svg xmlns="http://www.w3.org/2000/svg" xmlns:xlink="http://www.w3.org/1999/xlink" width="752" height="32"><svg id="icon-board" viewBox="0 0 37 32"><path fill="var(--color1, #1ab798)" d="M7.134 6.108h10.102v9.867H7.134V6.108zm0 11.128h9.892v8.73H7.134v-8.73zm11.339-3.635h7.345v12.365h-7.345V13.601zm0-7.493h7.345v6.257h-7.345V6.108zm14.677 0h3.87v5.02h-3.87v-5.02zm0 7.419h3.87v5.02h-3.87v-5.02zm0 7.419h3.87v5.02h-3.87v-5.02z"/><path fill="var(--color1, #1ab798)" d="M29.601 3.709V28.29H3.709V3.709h25.892zM33.311 0H0v32h33.311V0z"/></svg><svg id="icon-bell" viewBox="0 0 32 32"><path d="M29.238 26.991l-2.289-3.816a11.338 11.338 0 01-1.616-5.832V14c0-4.22-2.816-7.789-6.667-8.94V2.667C18.666 1.196 17.47 0 15.999 0s-2.667 1.196-2.667 2.667V5.06C9.481 6.211 6.665 9.78 6.665 14v3.343c0 2.053-.559 4.069-1.615 5.831L2.761 26.99a.667.667 0 00.571 1.011h25.333a.668.668 0 00.572-1.009z"/><path fill="#1ab798" d="M11.801 29.333C12.553 30.904 14.145 32 16 32s3.447-1.096 4.199-2.667h-8.398z"/></svg><svg id="icon-hub" viewBox="0 0 32 32"><path d="M24.889 23.111L17.778 16v-5.653c2.062-.747 3.556-2.702 3.556-5.013 0-2.951-2.382-5.333-5.333-5.333s-5.333 2.382-5.333 5.333c0 2.311 1.493 4.267 3.556 5.013V16l-7.111 7.111H.002V32h8.889v-5.422l7.111-7.467 7.111 7.467V32h8.889v-8.889h-7.111z"/></svg><svg id="icon-share" viewBox="0 0 32 32"><path d="M26.03 20.338c-1.853 0-3.487.883-4.554 2.234l-9.903-5.064c.13-.483.223-.983.223-1.509 0-.572-.111-1.111-.265-1.636l9.859-5.041c1.062 1.413 2.738 2.336 4.642 2.336a5.829 5.829 0 100-11.659 5.83 5.83 0 00-5.829 5.829c0 .527.093 1.028.224 1.513l-9.901 5.064c-1.069-1.353-2.706-2.239-4.562-2.239-3.222 0-5.829 2.611-5.829 5.832s2.607 5.83 5.829 5.83c1.907 0 3.581-.926 4.648-2.341l9.855 5.041c-.154.523-.267 1.066-.267 1.64a5.83 5.83 0 005.829 5.83 5.83 5.83 0 005.833-5.83 5.827 5.827 0 00-5.832-5.832z"/></svg><svg id="icon-star" viewBox="0 0 32 32"><path d="M31.972 12.36a.574.574 0 00-.463-.39l-10.362-1.506-4.634-9.389a.572.572 0 00-1.026 0l-4.634 9.39L.491 11.971a.573.573 0 00-.318.977l7.498 7.309L5.9 30.577a.574.574 0 00.83.604l9.269-4.872 9.268 4.872a.576.576 0 00.604-.043.57.57 0 00.227-.56l-1.77-10.32 7.498-7.309a.572.572 0 00.144-.587z"/></svg><svg id="icon-thumb" viewBox="0 0 32 32"><path d="M0 30.545h5.818V13.09H0v17.455zm32-16c0-1.6-1.309-2.909-2.909-2.909h-9.164l1.455-6.691v-.436c0-.582-.291-1.164-.582-1.6l-1.6-1.455-9.6 9.6c-.582.436-.873 1.164-.873 2.036v14.545c0 1.6 1.309 2.909 2.909 2.909h13.091c1.164 0 2.182-.727 2.618-1.745l4.364-10.327c.145-.291.145-.727.145-1.018v-2.909h.145z"/></svg></svg>